<svg width="72" height="40" viewBox="0 0 72 40" fill="none" xmlns="http://www.w3.org/2000/svg">
<g clip-path="url(#clip0_1_396)">
<path d="M72 40L72 0L0 -3.14722e-06L-1.74846e-06 40L72 40Z" fill="#ED1C24"/>
<path fill-rule="evenodd" clip-rule="evenodd" d="M50.6015 13.3333L58.8245 13.3333L58.8245 16.89L54.9157 16.89L54.9157 18.2216L58.4191 18.2216L58.4191 21.6111L54.9157 21.6111L54.9157 23.0004L59 23.0004L59 26.6666L50.5954 26.6666L50.5954 13.3333M14.0061 26.6205L14.0061 13.3332L19.6636 13.3333C20.7709 13.3333 21.5877 13.4428 22.1747 13.6676C23.403 14.1691 24.8007 15.6679 24.6858 17.5586C24.7463 19.5071 24.1049 20.8387 22.2352 21.2249L22.8161 22.1126C23.052 22.447 23.167 22.7813 23.282 22.9485L25.4966 26.6205L20.6559 26.6205L18.3203 22.3951L18.3203 26.6205L14 26.6205L14.0061 26.6205ZM18.3808 19.3918L18.7318 19.3918C21.0069 19.3918 21.0069 16.7228 18.7923 16.7228L18.3869 16.7228L18.3869 19.3918L18.3808 19.3918ZM26.5494 13.3333L34.7785 13.3333L34.7785 16.89L30.8697 16.89L30.8697 18.2216L34.3126 18.2216L34.3126 21.6111L30.8697 21.6111L30.8697 23.0004L34.954 23.0004L34.954 26.6666L26.5494 26.6666L26.5494 13.3333ZM36.7632 13.3333L42.7717 13.3333C46.2146 13.3333 48.6652 16.89 48.6047 20.0604C48.5442 23.3981 46.3296 26.5109 42.7717 26.5628L36.7632 26.6205L36.7632 13.3333ZM41.138 17.3915L41.138 22.5046L41.6039 22.5046C43.1771 22.5046 44.1694 21.784 44.1694 20.1123C44.1694 18.5559 43.4675 17.3915 41.6039 17.3915L41.138 17.3915Z" fill="white"/>
</g>
<defs>
<clipPath id="clip0_1_396">
<rect width="40" height="72" fill="white" transform="translate(72) rotate(90)"/>
</clipPath>
</defs>
</svg>
